# OBJ generated by ONSHAPE BY PTC INC, 1.209 Units = meters
mtllib Dastmalchi_SafetyWalls_V2.mtl
g Part 1
v 1.78308 2.1336 -5.32606 
v 1.78308 0 -5.32606 
v 1.78308 0 -5.61816 
v 1.78308 2.1336 -5.61816 
v 2.63652 0 -5.61816 
v 2.63652 2.1336 -5.61816 
v 2.63652 0 -5.32606 
v 2.63652 2.1336 -5.32606 
v 4.0386 0 -5.32606 
v 4.0386 2.1336 -5.32606 
v 4.0386 0 -3.96494 
v 4.0386 2.1336 -3.96494 
v 3.7465 0 -3.96494 
v 3.7465 2.1336 -3.96494 
v 3.7465 0 -1.76784 
v 3.7465 2.1336 -1.76784 
v 3.32105 0 -1.76784 
v 3.32105 2.1336 -1.76784 
v 3.32105 0 -0.6858 
v 3.32105 2.1336 -0.6858 
v 0.6858 0 -0.6858 
v 0.6858 2.1336 -0.6858 
v 0.6858 0 -5.32606 
v 0.6858 2.1336 -5.32606 
v 1.09728 2.1336 -6.01186 
v 0 2.1336 -6.01186 
v 0 2.1336 0 
v 3.32232 2.1336 -6.01186 
v 3.32232 2.1336 -6.30396 
v 1.09728 2.1336 -6.30396 
v 4.00685 2.1336 0 
v 4.4323 2.1336 -3.27914 
v 4.7244 2.1336 -3.27914 
v 4.7244 2.1336 -6.01186 
v 4.00685 2.1336 -1.08204 
v 4.4323 2.1336 -1.08204 
v 3.32232 0 -6.01186 
v 4.7244 0 -6.01186 
v 3.32232 0 -6.30396 
v 4.7244 0 -3.27914 
v 4.4323 0 -3.27914 
v 4.4323 0 -1.08204 
v 4.00685 0 -1.08204 
v 4.00685 0 0 
v 0 0 0 
v 0 0 -6.01186 
v 1.09728 0 -6.01186 
v 1.09728 0 -6.30396 
vn 1 0 0 
vn 0 0 1 
vn -1 0 1.52033e-15 
vn 0 0 -1 
vn 1 0 0 
vn 0 0 1 
vn 0 1 0 
vn 0 -1 0 
vn 0 0 -1 
vn -1 0 0 
vn 0 0 1 
vn 1 0 0 
vn 0 0 -1 
vn -1 0 0 
usemtl 0.615686_0.811765_0.929412_0.000000_0.000000
o mesh0
f 1//1 2//1 3//1 
f 3//1 4//1 1//1 
o mesh1
f 4//2 3//2 5//2 
f 5//2 6//2 4//2 
o mesh2
f 6//3 5//3 7//3 
f 7//3 8//3 6//3 
o mesh3
f 8//2 7//2 9//2 
f 9//2 10//2 8//2 
o mesh4
f 10//3 9//3 11//3 
f 11//3 12//3 10//3 
o mesh5
f 12//4 11//4 13//4 
f 13//4 14//4 12//4 
o mesh6
f 14//3 13//3 15//3 
f 15//3 16//3 14//3 
o mesh7
f 16//4 15//4 17//4 
f 17//4 18//4 16//4 
o mesh8
f 18//3 17//3 19//3 
f 19//3 20//3 18//3 
o mesh9
f 20//4 19//4 21//4 
f 21//4 22//4 20//4 
o mesh10
f 22//5 21//5 23//5 
f 23//5 24//5 22//5 
o mesh11
f 24//6 23//6 2//6 
f 2//6 1//6 24//6 
o mesh12
f 25//7 26//7 24//7 
f 27//7 22//7 24//7 
f 6//7 8//7 28//7 
f 29//7 30//7 4//7 
f 24//7 26//7 27//7 
f 27//7 31//7 20//7 
f 4//7 6//7 29//7 
f 4//7 30//7 25//7 
f 32//7 33//7 12//7 
f 33//7 34//7 10//7 
f 20//7 22//7 27//7 
f 25//7 1//7 4//7 
f 10//7 12//7 33//7 
f 28//7 8//7 10//7 
f 28//7 29//7 6//7 
f 10//7 34//7 28//7 
f 35//7 36//7 16//7 
f 32//7 14//7 16//7 
f 12//7 14//7 32//7 
f 16//7 36//7 32//7 
f 16//7 18//7 35//7 
f 20//7 31//7 35//7 
f 35//7 18//7 20//7 
f 24//7 1//7 25//7 
o mesh13
f 37//8 38//8 9//8 
f 5//8 39//8 37//8 
f 37//8 7//8 5//8 
f 38//8 40//8 11//8 
f 41//8 42//8 15//8 
f 41//8 13//8 11//8 
f 11//8 9//8 38//8 
f 11//8 40//8 41//8 
f 19//8 17//8 43//8 
f 43//8 17//8 15//8 
f 15//8 13//8 41//8 
f 15//8 42//8 43//8 
f 43//8 44//8 19//8 
f 44//8 45//8 21//8 
f 21//8 19//8 44//8 
f 45//8 46//8 23//8 
f 3//8 2//8 47//8 
f 48//8 39//8 5//8 
f 23//8 21//8 45//8 
f 23//8 46//8 47//8 
f 5//8 3//8 48//8 
f 47//8 2//8 23//8 
f 9//8 7//8 37//8 
f 47//8 48//8 3//8 
o mesh14
f 25//9 47//9 46//9 
f 46//9 26//9 25//9 
o mesh15
f 26//10 46//10 45//10 
f 45//10 27//10 26//10 
o mesh16
f 27//11 45//11 44//11 
f 44//11 31//11 27//11 
o mesh17
f 31//12 44//12 43//12 
f 43//12 35//12 31//12 
o mesh18
f 35//11 43//11 42//11 
f 42//11 36//11 35//11 
o mesh19
f 36//12 42//12 41//12 
f 41//12 32//12 36//12 
o mesh20
f 32//11 41//11 40//11 
f 40//11 33//11 32//11 
o mesh21
f 33//12 40//12 38//12 
f 38//12 34//12 33//12 
o mesh22
f 34//13 38//13 37//13 
f 37//13 28//13 34//13 
o mesh23
f 28//12 37//12 39//12 
f 39//12 29//12 28//12 
o mesh24
f 29//13 39//13 48//13 
f 48//13 30//13 29//13 
o mesh25
f 30//14 48//14 47//14 
f 47//14 25//14 30//14 
