# Blender 5.0.1
# www.blender.org
mtllib grass03.mtl
o Cylinder
v -0.000402 0.015302 -0.195997
v 0.025400 1.880823 -0.257770
v 0.054072 2.467551 -0.384255
v 0.092649 1.932456 -0.228941
v 0.154659 0.004808 -0.121375
v 0.143124 1.537370 -0.087010
v 0.191002 0.003403 0.041681
v 0.052003 2.476254 -0.335601
v 0.075417 1.631083 -0.006988
v 0.085491 0.011914 0.176253
v -0.025658 2.411469 -0.323640
v -0.024392 1.790238 -0.045365
v -0.060009 0.954166 0.088176
v -0.085642 0.019629 0.174833
v -0.081875 1.772339 -0.116520
v -0.194539 0.025060 0.046317
v 0.006151 2.461758 -0.403484
v -0.053273 1.835882 -0.215454
v -0.155949 0.005657 -0.120740
vn -0.0398 -0.1497 -0.9879
vn 0.0629 -0.1260 -0.9900
vn 0.6916 0.0473 -0.7207
vn 0.8231 -0.0250 -0.5674
vn 0.8316 -0.1289 -0.5402
vn 0.9872 0.0823 0.1366
vn 0.9447 -0.0884 0.3159
vn 0.9232 0.2809 0.2623
vn 0.4861 0.1646 0.8583
vn 0.4253 -0.0670 0.9026
vn -0.9853 0.1372 -0.1018
vn -0.4832 0.2267 0.8456
vn -0.4483 0.1213 0.8856
vn -0.3761 -0.0675 0.9241
vn -0.9814 0.1165 0.1524
vn -0.9553 -0.0746 0.2860
vn -0.2342 0.0404 -0.9713
vn -0.8197 -0.0235 -0.5723
vn -0.8444 -0.1094 -0.5244
vt 0.100632 0.943131
vt 0.000000 0.742875
vt 0.142857 0.740041
vt 0.283455 0.884231
vt 0.285714 0.737075
vt 0.428571 0.629580
vt 0.285714 0.499832
vt 0.428571 0.501562
vt 0.428571 0.745207
vt 0.571429 0.715569
vt 0.857143 0.499409
vt 0.714286 0.702122
vt 0.714286 0.499303
vt 0.857143 0.754408
vt 0.519644 0.930486
vt 0.827653 0.943300
vt 0.937640 0.399638
vt 0.983983 0.196595
vt 0.854132 0.033767
vt 0.645868 0.033767
vt 0.516017 0.196595
vt 0.562360 0.399638
vt 0.750000 0.490000
vt 0.000000 0.501259
vt 0.142857 0.498644
vt 0.571429 0.500130
vt 1.000000 0.501259
vt 1.000000 0.742875
vt 1.000000 0.945057
s 1
f 17/1/17 2/2/2 18/3/18
f 11/4/11 18/3/18 15/5/15
f 13/6/13 16/7/16 14/8/14
f 12/9/12 15/5/15 13/6/13
f 11/4/11 15/5/15 12/9/12
f 9/10/9 12/9/12 13/6/13
f 5/11/5 6/12/6 7/13/7
f 4/14/4 8/15/8 6/12/6
f 4/14/4 3/16/3 8/15/8
f 17/1/17 8/15/8 3/16/3
f 5/17/5 7/18/7 10/19/10 14/20/14 16/21/16 19/22/19 1/23/1
f 1/24/1 19/25/19 18/3/18 2/2/2
f 19/25/19 16/7/16 15/5/15 18/3/18
f 13/6/13 14/8/14 10/26/10 9/10/9
f 11/4/11 17/1/17 18/3/18
f 13/6/13 15/5/15 16/7/16
f 8/15/8 17/1/17 11/4/11
f 12/9/12 9/10/9 8/15/8 11/4/11
f 9/10/9 10/26/10 7/13/7 6/12/6
f 4/14/4 5/11/5 1/27/1 2/28/2
f 6/12/6 8/15/8 9/10/9
f 5/11/5 4/14/4 6/12/6
f 3/16/3 4/14/4 2/28/2 17/29/17
